<svg width="198" height="212" viewBox="0 0 198 212" fill="none" xmlns="http://www.w3.org/2000/svg">
<path fill-rule="evenodd" clip-rule="evenodd" d="M163.313 198.898H167.729L170.661 187.563H173.383C174.447 187.563 174.873 188.354 174.585 189.469L172.146 198.898H176.563L179.219 188.626C179.854 186.173 178.696 183.97 175.182 183.97H167.174L163.313 198.898ZM62.7186 178.058C61.5618 178.057 60.0548 178.762 59.7658 179.881L59.165 182.205H63.5816L64.6531 178.06L62.7186 178.058ZM69.7853 178.058C68.6286 178.057 67.1211 178.762 66.8326 179.881L66.2318 182.205H70.6479L71.7194 178.06L69.7853 178.058ZM162.925 178.058C161.769 178.057 160.262 178.762 159.973 179.881L159.373 182.205H163.789L164.86 178.06L162.925 178.058ZM70.8476 183.97H66.4311L63.4999 195.305H60.7777C59.7146 195.305 59.2879 194.514 59.5761 193.398L62.0145 183.97H57.598L54.9418 194.241C54.3074 196.694 55.4658 198.898 58.9781 198.898H66.9867L70.8476 183.97ZM159.297 198.898L163.165 183.97H158.749L154.907 198.898H159.297ZM115.949 183.97H111.533L108.602 195.305H105.88C104.816 195.305 104.39 194.514 104.678 193.398L107.117 183.97H102.7L100.043 194.241C99.4087 196.694 100.567 198.898 104.08 198.898H112.089L115.949 183.97ZM71.1294 198.898H75.5564L77.8039 190.042C78.0801 188.954 78.5572 187.563 80.5613 187.563H82.2348L83.1466 183.97H80.5741C76.9297 183.97 74.4096 185.972 73.6207 189.081L71.1294 198.898ZM116.055 198.898H120.482L122.73 190.042C123.006 188.954 123.483 187.563 125.486 187.563H127.16L128.072 183.97H125.5C121.855 183.97 119.335 185.972 118.546 189.081L116.055 198.898ZM143.891 198.898H148.318L150.566 190.042C150.842 188.954 151.319 187.563 153.323 187.563H154.997L155.908 183.97H153.336C149.692 183.97 147.172 185.972 146.382 189.081L143.891 198.898ZM92.3099 193.592L93.3763 189.469C93.6644 188.354 93.2382 187.563 92.1747 187.563H89.4989L87.4687 195.467H90.1733C91.1212 195.467 92.073 194.508 92.3099 193.592ZM87.4571 178.058H91.9393L90.4215 183.97H93.9747C97.4878 183.97 98.6462 186.173 98.0117 188.626L96.7237 193.605C95.3904 198.76 92.0286 198.898 90.9382 198.898H82.1051L87.4571 178.058ZM133.629 189.276L132.562 193.398C132.274 194.514 132.701 195.305 133.764 195.305H136.441L138.47 187.4H135.766C134.817 187.4 133.866 188.36 133.629 189.276ZM133.259 204.618H126.514L127.482 200.876L133.545 200.861C134.244 200.86 135.154 200.416 135.315 199.737L135.517 198.898H131.964C128.452 198.898 127.294 196.694 127.928 194.241L129.216 189.264C130.549 184.11 133.91 183.97 135 183.97H143.834L140 198.874C138.947 202.967 137.275 204.618 133.259 204.618ZM187.074 189.276L186.007 193.398C185.72 194.514 186.146 195.305 187.209 195.305H189.886L191.915 187.4H189.211C188.263 187.4 187.311 188.36 187.074 189.276ZM186.704 204.618H179.96L180.928 200.876L186.991 200.861C187.69 200.86 188.598 200.416 188.761 199.737L188.963 198.898H185.409C181.897 198.898 180.738 196.694 181.373 194.241L182.66 189.264C183.994 184.11 187.356 183.97 188.446 183.97H197.279L193.446 198.874C192.393 202.967 190.721 204.618 186.704 204.618ZM36.6413 198.898H41.0582L43.9889 187.563H46.7111C47.7739 187.563 48.2001 188.354 47.9127 189.469L45.4743 198.898H49.8905L52.547 188.626C53.1819 186.173 52.0231 183.97 48.5107 183.97H40.5022L36.6413 198.898Z" fill="white"/>
<path d="M193.868 50.1125C193.701 50.7632 193.154 51.5375 192.308 51.8014C191.224 52.1398 189.717 52.1894 188.389 52.2329C186.851 52.2833 185.522 52.3273 184.456 52.7532C182.06 53.7111 181.51 56.9033 180.927 60.2834C180.676 61.7448 180.254 64.1911 179.782 64.6938C179.006 65.4684 177.823 66.0287 176.452 66.6782C174.967 67.3813 173.285 68.1779 171.721 69.4613C170.029 70.8506 168.684 72.6511 167.498 74.2396C166.606 75.4346 165.763 76.5631 165.04 77.141C163.763 78.0961 155.345 79.5434 152.698 79.5434C152.669 79.5434 152.642 79.5434 152.617 79.543C152.362 79.4314 151.826 79.1191 151.425 78.8843C149.831 77.9533 147.848 76.7947 145.831 76.7947C145.686 76.7947 145.542 76.8007 145.399 76.8131C143.661 76.9643 142.008 78.152 140.978 79.9905C140.084 81.5862 139.898 83.2339 140.48 84.3985C141.105 85.645 142.78 86.6732 145.265 88.099C145.522 88.2461 145.813 88.4129 146.048 88.5525C146.057 88.7576 146.061 88.9972 146.063 89.184C146.076 90.0398 146.091 91.01 146.362 91.8911C146.632 92.7685 147.211 93.5231 147.721 94.189C147.798 94.2898 147.887 94.4058 147.975 94.5246C147.557 94.6377 147.08 94.7421 146.755 94.8133C145.971 94.9841 145.295 95.1316 144.745 95.3812C143.607 95.8979 138.385 99.5796 136.093 101.21L119.393 110.59C117.452 111.361 97.8068 119.219 90.9058 123.947C84.8878 128.071 72.4099 141.097 68.3168 145.435C67.9509 145.043 67.4622 144.589 66.8742 144.2C66.2386 143.78 65.5858 143.391 65.0686 143.094C65.1207 142.635 65.105 142.172 65.0162 141.71C64.7788 140.478 64.0175 139.356 62.9276 138.63C62.2503 138.179 61.4338 138.127 60.8782 138.127C59.567 138.127 57.6569 138.469 55.6347 138.831C53.91 139.14 51.9551 139.49 50.9404 139.49C50.7471 139.49 50.671 139.476 50.6678 139.476C49.5739 139.277 48.6381 138.728 47.8123 138.243C47.2616 137.92 46.7416 137.615 46.1904 137.414C45.568 137.189 44.8203 137.142 43.8897 137.142C43.6159 137.142 43.3269 137.146 43.0307 137.151C42.7401 137.155 42.4423 137.159 42.1461 137.159C40.8869 137.159 40.4554 137.063 40.3213 137.015C39.5688 136.481 37.3915 133.604 36.3377 132.211C35.5289 131.142 34.8897 130.298 34.4737 129.844C34.1376 129.478 33.1201 128.573 30.2979 126.081C28.3981 124.403 26.0336 122.315 23.9349 120.415C18.5654 115.555 17.1763 113.927 16.8223 113.394C16.8596 112.785 17.2977 111.219 17.6553 109.941C18.9236 105.407 20.8405 98.5558 19.875 90.5633C19.084 84.0145 16.3233 79.4002 14.3072 76.0308C13.0822 73.9832 11.925 72.0492 12.3536 71.3285C13.4709 69.4513 16.5054 67.7968 19.44 66.1971C21.2868 65.1905 23.1961 64.1495 24.7059 62.9981C26.4744 61.65 30.8869 58.067 33.6612 53.9214C34.6855 52.3909 35.3944 50.8008 36.0199 49.3979C36.7705 47.7146 37.4186 46.2605 38.3686 45.3714C39.7859 44.0461 41.8231 42.5348 43.9798 40.9351C49.3381 36.9602 54.3995 33.2061 54.2098 29.4148C54.0445 26.1115 51.8306 23.5855 50.3656 21.9135C50.2051 21.7311 50.0186 21.5179 49.8517 21.3204C50.0786 21.1232 50.3432 20.906 50.5666 20.7229C51.8906 19.6371 53.5201 18.3001 54.2154 16.4269C54.3547 16.3369 54.5616 16.2181 54.7253 16.1237C55.6187 15.6102 56.968 14.834 57.8458 13.3195C58.122 12.8424 59.2467 12.2141 59.6874 12.2137C60.9138 12.2925 62.0762 13.2587 63.2006 14.1933C64.1932 15.0184 65.1315 15.7978 66.2622 16.0638C66.5832 16.1393 67.2036 16.2393 68.8844 16.2393C69.0028 16.2393 80.7615 16.2141 82.9457 14.0317C83.8131 13.1647 84.6153 11.5298 85.7404 9.13427C86.051 8.47279 86.4441 7.63576 86.7259 7.10426C87.1089 7.09506 87.8202 7.09665 88.5803 7.10305C89.0294 7.10665 89.5033 7.11064 89.9852 7.11064C91.2441 7.11064 92.8535 7.08666 94.132 6.89709C95.3512 6.71673 96.7658 6.11564 98.2639 5.47896C99.8978 4.78469 101.75 3.99764 102.88 3.99764C102.943 3.99764 102.997 4.00044 103.042 4.00484C103.098 4.60633 102.889 5.92167 102.745 6.8307C102.301 9.63537 101.747 13.1259 103.371 16.2409C106.228 21.7219 115.318 23.7591 116.345 23.9735L116.53 24.0031C119.202 24.3038 123.907 24.9281 125.157 25.3224C126.703 25.8099 131.399 28.5406 134.292 30.6342C137.321 32.8254 142.208 34.1819 144.998 34.1819C145.449 34.1819 145.864 34.148 146.231 34.0816C147.328 33.882 148.704 33.1429 150.446 32.2067C152.667 31.0129 155.709 29.378 157.6 29.378C157.715 29.378 157.822 29.3845 157.921 29.3977C158.761 29.508 159.215 29.6572 159.444 29.758C159.15 29.9135 158.786 30.0935 158.485 30.2419C155.938 31.498 151.198 33.8364 152.23 38.2656C152.858 40.9643 155.033 42.6403 157.907 42.6403C160.802 42.6403 163.873 40.9603 165.759 38.352C165.981 38.2992 166.483 38.2872 166.861 38.2784C168.218 38.2456 170.269 38.1964 172.337 36.7523C174.832 35.0098 176.559 32.6162 178.083 30.5042C179.384 28.7018 180.613 26.9989 181.952 26.2726C182.095 26.1946 182.188 26.1859 182.245 26.1859C183.389 26.1859 185.321 28.9309 186.146 30.1031C186.773 30.9942 187.225 31.638 187.721 32.0504C188.496 32.6962 189.909 33.5001 191.405 34.3515C191.965 34.6699 192.66 35.0658 193.146 35.3617C193.054 35.878 192.866 36.6231 192.728 37.1702C192.345 38.6895 191.948 40.2608 192.006 41.5989C192.057 42.7803 192.504 43.9397 192.977 45.1671C193.615 46.822 194.275 48.5328 193.868 50.1125ZM60.01 153.421C56.9628 156.23 47.5866 163.183 45.6169 164.381C44.7255 164.922 43.8769 165.467 43.0559 165.992C41.6694 166.881 39.8624 168.039 38.8511 168.444C38.812 167.929 39.0536 167.42 39.5253 166.568C40.15 165.44 41.3128 163.338 39.3835 161.41C37.7721 159.799 36.637 159.255 34.8857 159.255C34.5289 159.255 34.1667 159.275 33.7475 159.298C33.4842 159.313 33.1947 159.329 32.8713 159.342C32.5409 159.354 32.2246 159.362 31.9237 159.369C29.75 159.42 27.0448 159.485 26.1792 162.344C25.2606 165.379 27.7595 166.584 28.7003 167.038C28.9878 167.177 29.469 167.409 29.5551 167.521C29.5554 167.522 29.5626 167.544 29.5656 167.598C29.6315 168.806 28.8701 170.843 28.3493 171.907L24.8017 177.519L24.7347 177.633C23.5198 179.871 19.8233 186.68 20.105 188.932C20.3187 190.64 21.9469 192.193 23.8322 193.991C24.3739 194.508 25.1177 195.217 25.5605 195.719C24.8954 196.366 23.4369 196.978 21.5547 197.723C20.8246 198.012 19.9832 198.231 19.0926 198.463C16.8221 199.054 14.2486 199.724 11.9282 201.862C11.3725 202.374 10.8426 202.868 10.3373 203.338C8.14299 205.382 5.42054 207.919 4.4699 207.999C4.42219 207.957 4.3198 207.854 4.17799 207.626C4.05823 207.433 3.69391 206.847 4.67644 205.649C5.97387 204.066 8.2812 202.323 10.3164 200.785C13.1175 198.669 14.7311 197.404 15.3246 196.021C16.1858 194.013 16.6424 191.607 17.0452 189.483C17.2397 188.459 17.4232 187.491 17.611 186.834C17.8013 186.169 19.1567 183.553 20.2461 181.451C24.0703 174.07 24.6232 172.655 24.1898 171.355C23.8766 170.416 23.0582 169.703 21.3851 168.306C20.4775 167.548 18.6873 166.053 18.1765 165.224C19.123 164.033 22.4392 161.183 24.7012 159.238C25.2191 158.794 25.7392 158.347 26.2527 157.902L26.3134 157.85C28.8257 155.677 32.6224 152.394 33.6984 152.09C34.354 151.939 35.2612 151.866 36.472 151.866C37.7411 151.866 39.1974 151.948 40.6059 152.028C42.0737 152.111 43.5919 152.197 44.9824 152.197C45.6617 152.197 46.2585 152.177 46.8072 152.136C48.5588 152.004 50.6614 151.14 53.0958 150.14C54.1365 149.713 55.2125 149.27 56.3044 148.869C57.2926 148.506 58.2677 148.187 59.2111 147.878C60.7537 147.374 61.9025 146.998 62.7431 146.571C63.6617 146.531 64.5307 146.632 65.0066 147.048C65.3744 147.37 65.5814 147.73 65.6938 148.084C64.3662 149.351 62.2423 151.364 60.01 153.421ZM33.5633 168.007C33.5715 167.796 33.5733 167.586 33.5623 167.38C33.4261 164.885 31.4974 163.947 30.4514 163.442C30.8982 163.394 31.5186 163.379 32.0189 163.367C32.3385 163.359 32.6742 163.351 33.0252 163.338C33.3734 163.324 33.6856 163.307 33.9694 163.292C34.3292 163.271 34.64 163.254 34.8857 163.254C35.3445 163.254 35.5387 163.254 36.3427 164.031C36.2522 164.218 36.1212 164.455 36.0225 164.633C35.5752 165.442 34.938 166.599 34.8541 168.031C34.6646 167.992 34.4661 167.962 34.274 167.951C34.0836 167.941 33.8326 167.966 33.5633 168.007ZM196.713 43.7301C196.376 42.8563 196.028 41.9533 196.005 41.4254C195.972 40.6715 196.325 39.2726 196.609 38.1484C197.209 35.7733 197.683 33.8968 196.324 32.7086C195.822 32.2699 194.926 31.7528 193.386 30.8762C192.303 30.2599 190.825 29.4188 190.303 28.9945C190.141 28.827 189.725 28.2367 189.42 27.8036C187.847 25.5668 185.469 22.1866 182.245 22.1866C181.482 22.1866 180.741 22.379 180.042 22.7581C177.9 23.9199 176.412 25.9819 174.836 28.1655C173.433 30.1099 171.982 32.1207 170.043 33.4745C168.965 34.2275 167.897 34.2531 166.765 34.2803C165.466 34.3111 163.688 34.3539 162.552 35.9584C161.247 37.8017 159.229 38.6411 157.907 38.6411C156.594 38.6411 156.267 37.9564 156.128 37.3602C155.816 36.0184 158.596 34.6471 160.257 33.828C161.986 32.975 163.351 32.3011 163.478 30.7802L163.497 30.5818C163.682 28.681 163.359 26.0787 158.442 25.4324C158.172 25.3968 157.889 25.3788 157.6 25.3788C154.702 25.3788 151.29 27.2117 148.549 28.6846C147.469 29.2653 145.989 30.0603 145.515 30.1467C145.425 30.1631 145.262 30.1827 144.998 30.1827C142.871 30.1827 138.845 28.9905 136.64 27.3948C133.935 25.4376 128.716 22.2514 126.363 21.5087C124.405 20.8912 118.18 20.1654 117.077 20.0402C114.73 19.5299 108.586 17.5859 106.921 14.3937C105.907 12.4485 106.328 9.79615 106.698 7.4566C107.128 4.74591 107.572 1.94323 105.254 0.592285C104.578 0.198359 103.779 -0.0016073 102.88 -0.0016073C100.934 -0.0016073 98.7803 0.913421 96.6973 1.79885C95.4973 2.30876 94.2569 2.83586 93.5456 2.94104C92.5137 3.09381 91.0191 3.1114 89.9852 3.1114C89.5149 3.1114 89.0522 3.1074 88.6139 3.1038C88.2089 3.1006 87.8238 3.09742 87.4716 3.09742C85.9485 3.09742 85.3589 3.161 84.845 3.38096C83.8131 3.82287 83.3164 4.88067 82.1168 7.43539C81.6076 8.51998 80.6886 10.4768 80.2099 11.0939C78.9014 11.6502 73.138 12.2401 68.8844 12.2401C67.5487 12.2401 67.1808 12.1741 67.1932 12.1745C66.9263 12.0877 66.2246 11.5046 65.7603 11.1187C64.3726 9.96531 62.4717 8.38561 59.9448 8.22284C59.8632 8.21724 59.7803 8.21485 59.695 8.21485C57.789 8.21485 55.3557 9.63498 54.3815 11.3159C54.0417 11.9026 53.404 12.2693 52.7288 12.6576C51.895 13.1371 50.8571 13.7338 50.4941 14.9428C50.2291 15.8254 49.0079 16.8268 48.0269 17.6319C46.6688 18.7457 45.2646 19.8978 45.53 21.6203C45.6881 22.6473 46.387 23.4448 47.354 24.5482C48.52 25.8783 50.1167 27.7 50.2123 29.6144C50.2167 29.7052 50.1911 30.563 47.9196 32.6954C46.2104 34.2991 43.8633 36.0404 41.5938 37.7237C39.3428 39.3934 37.2169 40.9707 35.633 42.452C34.0917 43.8941 33.2524 45.777 32.3635 47.7706C31.7759 49.0891 31.1682 50.4521 30.334 51.6986C27.8936 55.3448 23.8872 58.5921 22.2777 59.8191C21.0109 60.7849 19.3167 61.7084 17.5228 62.6866C14.1149 64.5442 10.5912 66.4655 8.91302 69.2849C7.26489 72.0544 8.93632 74.8483 10.8717 78.0829C12.8055 81.3151 15.2122 85.3371 15.9013 91.0424C16.7714 98.2455 14.9833 104.636 13.8002 108.865C12.9954 111.741 12.5522 113.326 12.9876 114.631C13.308 115.591 14.1807 116.982 21.2473 123.379C23.3642 125.295 25.7391 127.392 27.6472 129.078C29.4164 130.64 31.2459 132.256 31.5231 132.547C31.8111 132.861 32.4892 133.756 33.1449 134.623C35.9046 138.27 37.334 139.996 38.5076 140.582C39.7686 141.212 41.5125 141.172 43.0892 141.149C43.3654 141.145 43.6347 141.141 43.8897 141.141C44.5369 141.141 44.7783 141.172 44.8567 141.186C45.0701 141.272 45.4331 141.485 45.7846 141.691C46.7868 142.28 48.1589 143.085 49.9517 143.411C50.2423 143.464 50.5658 143.489 50.9404 143.489C52.3113 143.489 54.2686 143.139 56.3408 142.767C58.102 142.452 59.9228 142.126 60.8782 142.126C60.8874 142.126 60.8962 142.126 60.9046 142.126C60.9995 142.231 61.0628 142.348 61.0856 142.466C61.1148 142.618 61.078 142.792 60.9755 142.985C60.4603 143.262 59.0322 143.729 57.9659 144.078C57.0345 144.382 55.9786 144.727 54.9223 145.116C53.7599 145.543 52.6483 146 51.5736 146.441C49.5427 147.276 47.625 148.064 46.5074 148.148C46.06 148.181 45.5608 148.198 44.9824 148.198C43.7052 148.198 42.245 148.115 40.8325 148.035C39.3685 147.952 37.8545 147.866 36.472 147.866C34.9333 147.866 33.7662 147.97 32.7983 148.193C30.936 148.623 28.1255 150.994 23.6938 154.826L23.6333 154.878C23.1231 155.319 22.6058 155.764 22.0908 156.207C16.4197 161.081 14.4092 162.93 14.1179 164.531C13.6568 167.065 16.2807 169.256 18.8184 171.375C19.2494 171.734 19.7878 172.184 20.1527 172.52C19.5928 174.012 17.814 177.446 16.6915 179.612C15.0126 182.852 14.0486 184.734 13.7623 185.735C13.5245 186.568 13.3244 187.622 13.1127 188.738C12.7479 190.661 12.3347 192.84 11.6592 194.417C11.3335 195.003 9.35048 196.501 7.90235 197.596C5.68884 199.268 3.17966 201.164 1.58032 203.114C-0.197901 205.282 -0.490283 207.696 0.777906 209.736C1.94165 211.608 3.40403 212 4.42627 212C6.90981 211.999 9.22728 209.84 13.0669 206.263C13.5672 205.797 14.092 205.309 14.642 204.801C16.2265 203.341 18.1088 202.851 20.1017 202.333C21.0694 202.081 22.0699 201.82 23.0278 201.442C25.972 200.277 28.7534 199.178 29.682 196.549C30.3444 194.674 28.6903 193.096 26.5959 191.098C25.7832 190.323 24.461 189.062 24.113 188.446C24.3907 187.169 26.3928 182.973 28.2215 179.598L31.7884 173.955L31.8832 173.788C31.9532 173.649 32.2262 173.097 32.5328 172.317L33.0566 172.35C33.0566 172.35 34.2616 173.744 35.5125 173.894C36.7633 174.044 41.1495 171.861 41.1495 171.861L41.1066 171.804C42.2994 171.226 43.6395 170.369 45.2166 169.359C46.0183 168.845 46.8469 168.315 47.6978 167.797C49.8145 166.51 59.4677 159.362 62.7243 156.361C66.4151 152.959 69.829 149.663 69.863 149.63L69.9375 149.553C70.1016 149.377 86.4257 131.866 93.1694 127.246C99.9082 122.628 120.783 114.341 120.994 114.258L121.119 114.208L138.148 104.644L138.329 104.529C141.767 102.082 145.731 99.3513 146.399 99.0229C146.58 98.9449 147.199 98.8098 147.609 98.7202C149.482 98.3114 151.814 97.8023 152.318 95.7871C152.729 94.1458 151.671 92.7657 150.899 91.7579C150.658 91.4439 150.255 90.918 150.188 90.7145C150.084 90.3797 150.074 89.6835 150.066 89.124C150.047 87.8922 150.03 86.7292 149.189 85.8898C148.849 85.5491 148.38 85.2743 147.259 84.6312C146.492 84.1909 144.807 83.2243 144.169 82.6692C144.312 82.0281 145.069 80.8563 145.747 80.7976C145.774 80.7948 145.803 80.794 145.831 80.794C146.763 80.794 148.353 81.7226 149.404 82.3369C150.301 82.8604 151.009 83.2743 151.692 83.4447C151.964 83.5126 152.274 83.5426 152.698 83.5426C154.848 83.5426 165.026 82.2741 167.537 80.2665C168.664 79.3658 169.656 78.0373 170.706 76.6311C171.807 75.1566 172.946 73.6321 174.262 72.5519C175.445 71.5809 176.828 70.9258 178.166 70.2919C179.73 69.5517 181.347 68.7854 182.612 67.5217C183.977 66.1579 184.412 63.634 184.872 60.9621C185.127 59.4852 185.547 57.0436 186.041 56.4334C186.524 56.2958 187.624 56.2594 188.521 56.2298C190.104 56.1782 191.898 56.119 193.501 55.6187C195.569 54.9736 197.195 53.2455 197.745 51.1084C198.47 48.2897 197.496 45.7614 196.713 43.7301Z" fill="white"/>
</svg>
