<svg width="101" height="37" viewBox="0 0 101 37" fill="none" xmlns="http://www.w3.org/2000/svg">
<path d="M35.55 35.9999H26.2L17.75 23.8499L9.45002 35.9999H0.150024L13.1 18.1999L0.800024 0.999901H10L18.05 12.3499L25.95 0.999901H34.7L22.5 17.8999L35.55 35.9999Z" fill="#9EA5A7"/>
<path d="M51.7239 28.1999L40.5 17.9499H59.1239V32.1499C55.2739 35.0499 49.9739 36.5999 44.9739 36.5999C33.9739 36.5999 25.8739 29.0499 25.8739 18.4999C25.8739 7.9499 33.9739 0.399902 45.1239 0.399902C51.2739 0.399902 56.3739 2.4999 59.7739 6.4499L54.5739 11.2499C52.0239 8.5499 49.0739 7.2999 45.5239 7.2999C38.7239 7.2999 34.0739 11.8499 34.0739 18.4999C34.0739 25.0499 38.7239 29.6999 45.4239 29.6999C47.6239 29.6999 49.6739 29.2999 51.7239 28.1999Z" fill="#9EA5A7"/>
<path d="M61.8981 35.9999V7.5999H50.6981V0.999901H100.5L81.1981 7.5999H69.9981V35.9999H61.8981Z" fill="#9EA5A7"/>
</svg>
